<svg xmlns="http://www.w3.org/2000/svg" viewBox="0 0 1600 900" width="1600" height="900">
  <defs>
    <linearGradient id="g" x1="0" y1="0" x2="1" y2="1">
      <stop offset="0" stop-color="#2a1206"/><stop offset="1" stop-color="#050506"/>
    </linearGradient>
  </defs>
  <rect width="1600" height="900" fill="url(#g)"/>
  <g fill="#0a0a0d" stroke="#f2efe9" stroke-opacity="0.2">
    <rect x="120" y="150" width="620" height="700" rx="28"/>
  </g>
  <g fill="#f2efe9" fill-opacity="0.16">
    <rect x="170" y="230" width="300" height="26" rx="6"/>
    <rect x="170" y="330" width="520" height="96" rx="10"/><rect x="170" y="446" width="520" height="96" rx="10"/>
    <rect x="170" y="562" width="520" height="96" rx="10"/><rect x="170" y="678" width="520" height="96" rx="10"/>
  </g>
  <g fill="#ff6a2b" fill-opacity="0.75">
    <rect x="612" y="352" width="46" height="52" rx="8"/><rect x="612" y="468" width="46" height="52" rx="8"/>
    <rect x="612" y="584" width="46" height="52" rx="8"/>
  </g>
  <g stroke="#f2efe9" stroke-opacity="0.3" fill="none">
    <path d="M860 470 C 980 470, 980 300, 1120 300"/>
    <path d="M860 470 C 1000 470, 1040 620, 1180 620"/>
  </g>
  <g fill="#d4ff4f" fill-opacity="0.85">
    <circle cx="1130" cy="300" r="12"/><circle cx="1190" cy="620" r="12"/>
  </g>
  <g fill="#0a0a0d" stroke="#d4ff4f" stroke-opacity="0.6">
    <rect x="1120" y="150" width="360" height="80" rx="40"/>
    <rect x="1120" y="700" width="360" height="80" rx="40"/>
  </g>
  <text x="1120" y="200" fill="#d4ff4f" font-family="Arial, Helvetica, sans-serif" font-size="22" letter-spacing="4">PEDIDO NO WHATSAPP</text>
  <text x="1120" y="750" fill="#d4ff4f" font-family="Arial, Helvetica, sans-serif" font-size="22" letter-spacing="4">SEM COMISSÃO DE APP</text>
  <text x="1120" y="330" fill="#f2efe9" fill-opacity="0.55" font-family="Arial, Helvetica, sans-serif" font-size="18" letter-spacing="8">CARDÁPIO DIGITAL</text>
</svg>
